<svg width="131" height="51" viewBox="0 0 131 51" fill="none" xmlns="http://www.w3.org/2000/svg">
<g clip-path="url(#clip0_205_153)">
<path d="M90.5001 24.9364C90.5001 24.9364 90.5001 25.2182 90.9287 25.2182C91.7858 25.2182 92.5716 25.2182 93.4287 25.2182C93.4287 25.2182 93.5716 25.2182 93.643 25.2182C93.7144 25.2182 93.7859 25.2182 93.7859 25.0773C93.7859 25.0069 93.7859 24.866 93.7859 24.7956C93.7859 16.7652 93.7859 8.73479 93.7859 0.704398C93.7859 0.704398 93.7859 0.563514 93.7859 0.493072C93.7859 0.493072 93.7144 0.399149 93.5716 0.211304C93.5716 0.211304 93.4287 0.211304 93.3573 0.211304C92.5001 0.211304 91.643 0.211304 90.7859 0.211304C90.2859 0.211304 90.3573 0.211304 90.3573 0.633956C90.3573 4.64915 90.3573 8.66434 90.3573 12.6795V13.2431C90.3573 13.1726 90.3573 13.0317 90.2859 12.9613C90.143 12.3273 90.0001 11.7638 89.8573 11.1298C89.0001 7.60771 88.143 4.08561 87.2859 0.633956C87.2859 0.563514 87.2859 0.42263 87.2144 0.352188C87.2144 0.352188 87.2144 0.281746 87.0716 0.281746C87.0001 0.281746 86.9287 0.281746 86.7858 0.281746C85.8573 0.281746 84.9287 0.281746 84.0716 0.281746C83.643 0.281746 83.7144 0.281746 83.7144 0.633956C83.7144 8.73479 83.7144 16.7652 83.7144 24.866C83.7144 24.9364 83.7144 25.0069 83.7144 25.1478C83.7144 25.2182 83.7144 25.2887 83.8573 25.2887C83.9287 25.2887 84.0716 25.2887 84.143 25.2887C85.0001 25.2887 85.8573 25.2887 86.7144 25.2887C87.2144 25.2887 87.143 25.2887 87.143 24.866C87.143 20.4986 87.143 16.1312 87.143 11.7638C87.143 11.6229 87.143 11.482 87.143 11.3411V11.482C88.0001 14.9337 88.9287 18.3149 89.7858 21.7666C90.0716 22.8232 90.3573 23.9503 90.643 25.0069L90.5001 24.9364Z" fill="white"/>
<path d="M59.7856 25.8522C59.7856 25.8522 59.7856 25.7113 59.6427 25.7113C59.5713 25.7113 59.4999 25.7113 59.4284 25.7113C58.4999 25.7113 57.6427 25.7113 56.7141 25.7113C56.2856 25.7113 56.2856 25.7113 56.2856 26.134C56.2856 29.5856 56.2856 33.1077 56.2856 36.5594C56.2856 37.1934 56.2856 37.8978 56.2856 38.5318C56.2856 38.5318 56.2856 38.6022 56.2856 38.6726C56.2856 38.6726 56.2856 38.6022 56.2856 38.5318C55.9999 37.2638 55.6427 35.9958 55.357 34.7279C54.7141 31.9806 53.9999 29.3039 53.357 26.5566C53.357 26.2748 53.2141 26.0635 53.1427 25.7818C53.1427 25.7113 53.0713 25.6409 52.9284 25.6409C52.9284 25.6409 52.9284 25.6409 52.857 25.6409C51.857 25.6409 50.857 25.6409 49.857 25.6409C49.857 25.6409 49.7856 25.6409 49.7141 25.6409C49.6427 25.6409 49.5713 25.6409 49.5713 25.7818C49.5713 25.8522 49.5713 25.9226 49.5713 26.0635C49.5713 26.4862 49.5713 26.9088 49.5713 27.3315C49.5713 34.9392 49.5713 42.5469 49.5713 50.1547C49.5713 50.2956 49.5713 50.4365 49.5713 50.5069C49.5713 50.5069 49.5713 50.5773 49.6427 50.5773C49.7141 50.5773 49.7856 50.5773 49.9284 50.5773C50.857 50.5773 51.7856 50.5773 52.6427 50.5773C53.0713 50.5773 52.9999 50.5773 52.9999 50.2251C52.9999 50.1547 52.9999 50.0842 52.9999 50.0138V37.1229C52.9999 37.1229 52.9999 36.7707 52.9999 36.5594C52.9999 36.7003 52.9999 36.7707 53.0713 36.9116C53.4284 38.4613 53.857 39.9406 54.2141 41.4903C54.9284 44.3784 55.7141 47.337 56.4284 50.2251C56.4284 50.2956 56.4284 50.4365 56.4999 50.5069C56.4999 50.5069 56.4999 50.5773 56.6427 50.5773C56.7141 50.5773 56.7856 50.5773 56.9284 50.5773C57.7141 50.5773 58.4284 50.5773 59.2141 50.5773C59.357 50.5773 59.5713 50.5773 59.7141 50.5773C59.7141 50.4365 59.7141 50.2956 59.7141 50.1547C59.7141 42.1243 59.7141 34.1644 59.7141 26.134C59.7141 26.0635 59.7141 25.9931 59.7141 25.9226C59.7141 25.9226 59.7141 25.8522 59.7141 25.7818L59.7856 25.8522Z" fill="white"/>
<path d="M10.2144 29.8674C10.2144 29.163 10.0716 28.4585 9.78586 27.8246C9.42871 26.9088 8.71443 26.3453 7.78585 25.9931C7.21443 25.7817 6.57157 25.7113 5.92871 25.7113C4.07157 25.7113 2.28585 25.7113 0.428711 25.7113C-0.0712891 25.7113 -0.0712891 25.7113 -0.0712891 26.134C-0.0712891 30.1491 -0.0712891 34.1643 -0.0712891 38.1795C-0.0712891 42.2652 -0.0712891 46.2804 -0.0712891 50.366C-0.0712891 50.7182 -0.0712891 50.7182 0.285854 50.7182C2.21443 50.7182 4.07157 50.7182 6.00014 50.7182C6.42871 50.7182 6.85728 50.7182 7.28585 50.5773C8.42871 50.2956 9.28586 49.6616 9.71443 48.5345C9.78586 48.3232 9.92871 48.0414 9.92871 47.8301C10.0716 47.1961 10.143 46.4917 10.143 45.8577C10.143 40.7154 10.143 35.5732 10.143 30.5014C10.143 30.29 10.143 30.1491 10.143 29.9378L10.2144 29.8674ZM6.21443 45.6464C6.21443 45.6464 6.21443 46.1395 6.07157 46.3508C5.92871 46.703 5.71443 46.9143 5.35728 46.9848C5.21443 46.9848 5.143 46.9848 5.00014 46.9848C4.643 46.9848 4.28585 46.9848 3.92871 46.9848C3.92871 46.9848 3.78585 46.9848 3.78585 46.8439C3.78585 46.703 3.78585 46.6326 3.78585 46.4917C3.78585 43.6036 3.78585 40.7859 3.78585 37.8978C3.78585 35.0096 3.78585 32.192 3.78585 29.3743C3.78585 28.9516 3.78585 28.9516 4.21443 28.9516C4.42871 28.9516 4.71443 28.9516 4.92871 28.9516C5.07157 28.9516 5.21443 28.9516 5.35728 28.9516C5.643 29.0221 5.92871 29.2334 6.00014 29.5152C6.143 29.7265 6.143 30.0083 6.21443 30.2196C6.21443 30.5014 6.21443 30.7831 6.21443 31.1353C6.21443 35.6436 6.21443 40.1519 6.21443 44.7306C6.21443 45.0124 6.21443 45.2237 6.21443 45.5055V45.6464Z" fill="white"/>
<path d="M95.1431 25.0773C95.1431 25.0773 95.1431 25.2182 95.2859 25.2182C95.2859 25.2182 95.4288 25.2182 95.5002 25.2182C97.3574 25.2182 99.2859 25.2182 101.143 25.2182C101.572 25.2182 101.929 25.2182 102.357 25.0773C103.143 24.9364 103.786 24.5842 104.286 24.0207C104.715 23.598 104.929 23.0345 105.143 22.471C105.357 21.7666 105.429 21.0621 105.429 20.3577C105.429 19.5124 105.429 18.7375 105.429 17.8922C105.429 13.5953 105.429 9.22788 105.429 4.93092C105.429 4.2265 105.429 3.45164 105.143 2.74722C104.786 1.47926 103.929 0.633956 102.572 0.352188C102.143 0.281746 101.714 0.211304 101.214 0.211304C99.3574 0.211304 97.4288 0.211304 95.5716 0.211304C95.5002 0.211304 95.4288 0.211304 95.3574 0.211304C95.2859 0.211304 95.2145 0.211304 95.2145 0.352188C95.2145 0.493072 95.2145 0.563514 95.2145 0.704398C95.2145 4.71959 95.2145 8.73478 95.2145 12.75V23.2458C95.2145 23.8094 95.2145 24.3025 95.2145 24.866C95.2145 24.9364 95.2145 25.0069 95.2145 25.1478L95.1431 25.0773ZM99.0002 4.15606C99.0002 4.15606 99.0002 4.01517 99.0002 3.94473C99.0002 3.59252 99.0002 3.59252 99.3574 3.59252C99.6431 3.59252 99.9288 3.59252 100.214 3.59252C100.786 3.59252 101.143 3.87429 101.286 4.43782C101.286 4.64915 101.429 4.93092 101.429 5.14224C101.429 5.35357 101.429 5.5649 101.429 5.77622C101.429 10.2845 101.429 14.7928 101.429 19.3715C101.429 19.7237 101.429 20.0759 101.429 20.4282C101.429 20.4986 101.429 20.6395 101.357 20.7099C101.214 21.1326 100.929 21.4143 100.429 21.4848C100 21.5552 99.5716 21.4848 99.2145 21.4848C99.1431 21.4848 99.0716 21.4848 99.0716 21.3439C99.0716 21.203 99.0716 21.1326 99.0716 20.9917C99.0716 18.174 99.0716 15.2859 99.0716 12.4682V4.15606H99.0002Z" fill="white"/>
<path d="M97.5001 38.1795C97.5001 34.1644 97.5001 30.1492 97.5001 26.134C97.5001 25.9931 97.5001 25.9226 97.5001 25.7818C97.5001 25.7818 97.5001 25.7113 97.4286 25.7113C97.3572 25.7113 97.2144 25.7113 97.1429 25.7113C96.1429 25.7113 95.1429 25.7113 94.0715 25.7113C93.5715 25.7113 93.6429 25.7113 93.6429 26.134C93.6429 29.163 93.6429 32.192 93.6429 35.1505C93.6429 35.221 93.6429 35.3619 93.6429 35.4323C93.6429 35.6436 93.6429 35.6436 93.4286 35.6436C92.7144 35.6436 92.0001 35.6436 91.2858 35.6436C91.2858 35.6436 91.2144 35.6436 91.1429 35.6436C91.1429 35.6436 91.1429 35.6436 91.1429 35.5732C91.1429 35.5027 91.1429 35.3619 91.1429 35.2914C91.1429 34.0235 91.1429 32.7555 91.1429 31.4876C91.1429 29.6561 91.1429 27.895 91.1429 26.0635C91.1429 25.9931 91.1429 25.8522 91.1429 25.7818C91.1429 25.7818 91.1429 25.6409 91.0001 25.6409C91.0001 25.6409 90.9286 25.6409 90.8572 25.6409C89.7144 25.6409 88.6429 25.6409 87.5001 25.6409C87.2144 25.6409 87.2144 25.6409 87.2144 25.9226C87.2144 25.9226 87.2144 25.9931 87.2144 26.0635C87.2144 34.1643 87.2144 42.2652 87.2144 50.2956C87.2144 50.366 87.2144 50.4364 87.2144 50.5773C87.2144 50.5773 87.2144 50.6478 87.2858 50.6478C87.3572 50.6478 87.5001 50.6478 87.5715 50.6478C88.5715 50.6478 89.5715 50.6478 90.5715 50.6478C91.0715 50.6478 91.0001 50.7182 91.0001 50.2251C91.0001 46.8439 91.0001 43.5331 91.0001 40.1519C91.0001 40.011 91.0001 39.9406 91.0001 39.7997C91.0001 39.7997 91.0001 39.7293 91.0715 39.7293C91.1429 39.7293 91.2144 39.7293 91.3572 39.7293C91.9286 39.7293 92.5715 39.7293 93.1429 39.7293C93.6429 39.7293 93.5715 39.7293 93.5715 40.1519C93.5715 43.5331 93.5715 46.8439 93.5715 50.2251C93.5715 50.366 93.5715 50.4364 93.5715 50.5773C93.5715 50.6478 93.5715 50.7182 93.7144 50.7182C93.7858 50.7182 93.9286 50.7182 94.0001 50.7182C95.0001 50.7182 96.0001 50.7182 97.0001 50.7182C97.5001 50.7182 97.4286 50.7182 97.4286 50.2956C97.4286 46.2804 97.4286 42.2652 97.4286 38.25L97.5001 38.1795Z" fill="white"/>
<path d="M47.1427 23.3163C47.1427 23.8094 47.1427 24.3025 47.1427 24.7956C47.1427 24.8661 47.1427 24.9365 47.1427 25.0774C47.1427 25.1478 47.1427 25.2183 47.2856 25.2183C47.357 25.2183 47.4999 25.2183 47.5713 25.2183C48.5713 25.2183 49.5713 25.2183 50.5713 25.2183C51.0713 25.2183 50.9999 25.2183 50.9999 24.7252C50.9999 21.344 50.9999 17.9627 50.9999 14.5111C50.9999 14.3702 50.9999 14.2998 50.9999 14.1589C50.9999 14.018 50.9999 14.018 51.1427 14.018C51.4999 14.018 51.7856 14.018 52.1427 14.018C52.2856 14.018 52.4284 14.018 52.5713 14.018C52.9284 14.0884 53.1427 14.2998 53.2856 14.652C53.2856 14.7928 53.2856 14.8633 53.2856 15.0042C53.2856 15.2155 53.2856 15.4268 53.2856 15.6381C53.2856 18.1036 53.2856 20.5691 53.2856 23.0346C53.2856 23.3163 53.2856 23.5981 53.2856 23.8799C53.2856 24.2321 53.357 24.5138 53.4999 24.8661C53.4999 25.0069 53.7142 25.0774 53.857 25.0774C54.9284 25.0774 56.0713 25.0774 57.1427 25.0774C57.1427 25.0774 57.2142 25.0774 57.2856 25.0774C57.357 25.0774 57.357 25.0774 57.357 24.9365C57.357 24.866 57.357 24.7252 57.2856 24.6547C57.1427 24.3025 57.0713 23.9503 57.0713 23.5981C57.0713 23.3868 57.0713 23.105 57.0713 22.8937C57.0713 20.076 57.0713 17.2583 57.0713 14.4406C57.0713 14.2293 57.0713 14.018 57.0713 13.8067C56.9999 12.8909 56.5713 12.1865 55.7142 11.7638C55.6427 11.7638 55.5713 11.7638 55.4999 11.623C55.4999 11.623 55.4999 11.623 55.5713 11.623C56.2142 11.2707 56.5713 10.7072 56.857 10.0732C56.9999 9.58014 57.0713 9.08704 57.0713 8.59395C57.0713 7.04423 57.0713 5.4945 57.0713 3.94478C57.0713 3.38124 57.0713 2.81771 56.7856 2.25417C56.4999 1.33843 55.857 0.77489 54.9284 0.493122C54.4284 0.352238 53.857 0.281796 53.357 0.281796C51.4284 0.281796 49.4284 0.281796 47.4999 0.281796C47.357 0.281796 47.1427 0.211354 47.0713 0.281796C46.9999 0.42268 47.0713 0.563564 47.0713 0.704448C47.0713 8.24174 47.0713 15.779 47.0713 23.3163H47.1427ZM50.9999 4.01522C50.9999 4.01522 50.9999 3.8039 50.9999 3.73345C50.9999 3.66301 50.9999 3.59257 51.1427 3.59257C51.4999 3.59257 51.9284 3.59257 52.2856 3.59257C52.4284 3.59257 52.5713 3.59257 52.7142 3.66301C52.9999 3.73345 53.2142 3.94478 53.357 4.29699C53.4284 4.57876 53.4999 4.86053 53.4999 5.07185C53.4999 6.26937 53.4999 7.53732 53.4999 8.73483C53.4999 9.0166 53.4999 9.29837 53.357 9.58014C53.2142 10.1437 52.857 10.4254 52.2856 10.4254C51.9284 10.4254 51.5713 10.4254 51.2142 10.4254C51.1427 10.4254 51.0713 10.4254 51.0713 10.2846C51.0713 10.2141 51.0713 10.0732 51.0713 10.0028C51.0713 9.0166 51.0713 7.95997 51.0713 6.97378C51.0713 5.9876 51.0713 5.00141 51.0713 4.01522H50.9999Z" fill="white"/>
<path d="M121 29.7266C120.929 29.0222 120.714 28.3177 120.357 27.6133C119.929 26.8385 119.357 26.2749 118.571 25.9227C118.143 25.7114 117.643 25.5705 117.143 25.5001C116.5 25.4296 115.929 25.5001 115.286 25.5001C114.857 25.5001 114.429 25.5001 114 25.6409C112.786 25.9227 111.857 26.5567 111.214 27.6838C111 28.036 110.857 28.3882 110.786 28.8108C110.571 29.5857 110.5 30.3606 110.5 31.1354C110.5 35.7141 110.5 40.2929 110.5 44.8716C110.5 45.3647 110.5 45.8578 110.5 46.4213C110.571 47.1962 110.714 47.9711 111.071 48.6755C111.571 49.8025 112.429 50.507 113.643 50.8592C114.143 51.0001 114.643 51.0705 115.143 51.0705C115.5 51.0705 115.929 51.0705 116.286 51.0705C116.857 51.0705 117.357 51.0001 117.857 50.8592C118.857 50.5774 119.643 49.9434 120.143 49.0981C120.357 48.7459 120.5 48.3233 120.643 47.9006C120.857 47.1258 120.929 46.2804 120.929 45.4351C120.929 43.0401 120.929 40.7155 120.929 38.3205C120.929 35.9255 120.929 33.6009 120.929 31.2059C120.929 30.7128 120.929 30.2901 120.857 29.797L121 29.7266ZM117.071 46.1396C117.071 46.1396 117 46.4918 116.929 46.7031C116.714 47.1258 116.429 47.2666 116 47.3371C115.929 47.3371 115.786 47.3371 115.714 47.3371C115.286 47.3371 114.929 47.1258 114.786 46.7031C114.714 46.4918 114.643 46.2804 114.571 46.0691C114.571 45.8578 114.571 45.576 114.571 45.3647C114.571 40.6451 114.571 35.9255 114.571 31.2059C114.571 30.9241 114.571 30.7128 114.571 30.5014C114.571 30.2901 114.643 30.0788 114.714 29.9379C114.857 29.5857 115.143 29.3744 115.5 29.3039C115.643 29.3039 115.786 29.3039 115.929 29.3039C116.429 29.3039 116.857 29.5857 117 30.0788C117.071 30.3606 117.143 30.6423 117.143 30.9241C117.143 31.065 117.143 31.2059 117.143 31.3467C117.143 33.6713 117.143 36.0664 117.143 38.3909C117.143 40.7155 117.143 43.1106 117.143 45.5056C117.143 45.7874 117.143 46.0691 117.143 46.3509L117.071 46.1396Z" fill="white"/>
<path d="M109.286 29.7265C109.214 29.0925 109.071 28.529 108.857 27.9654C108.5 27.0497 107.857 26.4157 107 25.9931C106.5 25.7817 106.071 25.6409 105.5 25.5704C104.857 25.5 104.214 25.5 103.571 25.5704C103.143 25.5704 102.714 25.5704 102.286 25.7113C100.928 25.9931 99.9284 26.7679 99.4284 28.1063C99.2855 28.3881 99.2141 28.5994 99.1426 28.8812C98.9284 29.656 98.8569 30.5013 98.8569 31.2762C98.8569 33.6008 98.8569 35.9254 98.8569 38.25C98.8569 40.5041 98.8569 42.6878 98.8569 44.942C98.8569 45.4351 98.8569 45.9281 98.9284 46.4917C98.9998 47.1257 99.1426 47.8301 99.4284 48.4641C99.9998 49.8025 101 50.6478 102.428 50.9295C103.428 51.1409 104.428 51.0704 105.357 51C105.571 51 105.786 51 106 50.8591C107.357 50.5773 108.357 49.732 108.857 48.4641C109 48.1118 109.071 47.7596 109.143 47.4074C109.357 46.5621 109.357 45.7873 109.357 44.942C109.357 40.4337 109.357 35.8549 109.357 31.3467C109.357 30.7831 109.357 30.29 109.286 29.7265ZM105.357 46.2099C105.357 46.2099 105.286 46.6326 105.143 46.7734C104.928 47.0552 104.643 47.2665 104.286 47.2665C104.143 47.2665 104 47.2665 103.857 47.2665C103.5 47.2665 103.143 47.0552 103 46.703C102.857 46.4917 102.786 46.2804 102.786 46.069C102.786 45.7873 102.786 45.5055 102.786 45.2237C102.786 40.5746 102.786 35.8549 102.786 31.2058C102.786 30.924 102.786 30.6422 102.786 30.3605C102.786 30.2196 102.786 30.1491 102.786 30.0083C103 29.2334 103.571 29.0221 104.214 29.0925C104.643 29.0925 104.928 29.3743 105.143 29.7969C105.286 30.0787 105.286 30.3605 105.357 30.7127C105.357 30.8536 105.357 30.9944 105.357 31.1353C105.357 33.5304 105.357 35.8549 105.357 38.25C105.357 40.645 105.357 42.9696 105.357 45.3646C105.357 45.6464 105.357 45.9281 105.286 46.2099H105.357Z" fill="white"/>
<path d="M10.2857 0.352198C10.2857 0.352198 10.2857 0.281756 10.2143 0.281756C10.1429 0.281756 10.0714 0.281756 10 0.281756C8.92857 0.281756 7.85714 0.281756 6.78571 0.281756C6.42857 0.281756 6.42857 0.281756 6.42857 0.633966C6.42857 0.704408 6.42857 0.77485 6.42857 0.845292V9.72098C6.42857 9.72098 6.42857 9.93231 6.42857 10.0027C6.42857 10.1436 6.42857 10.2141 6.28571 10.2141C5.5 10.2141 4.78571 10.2141 4 10.2141C3.85714 10.2141 3.78571 10.2141 3.78571 10.0027C3.78571 9.93231 3.78571 9.86187 3.78571 9.72098C3.78571 8.31214 3.78571 6.9033 3.78571 5.42402C3.78571 3.80385 3.78571 2.18369 3.78571 0.563524C3.78571 0.42264 3.78571 0.352198 3.78571 0.211314C3.71429 0.211314 3.57143 0.211314 3.5 0.211314C2.5 0.211314 1.5 0.211314 0.5 0.211314C0 0.211314 0 0.140872 0 0.704408C0 4.7196 0 8.73479 0 12.75C0 16.7652 0 20.7099 0 24.7251C0 24.866 0 24.9365 0 25.0773C0 25.0773 0 25.2182 0.142857 25.2182C0.214286 25.2182 0.357143 25.2182 0.428571 25.2182C1.42857 25.2182 2.35714 25.2182 3.35714 25.2182C3.92857 25.2182 3.85714 25.2887 3.85714 24.7251C3.85714 21.3439 3.85714 18.0331 3.85714 14.6519C3.85714 14.511 3.85714 14.4406 3.85714 14.2997C3.85714 14.2997 3.85714 14.2293 3.92857 14.2293C4 14.2293 4.07143 14.2293 4.21429 14.2293C4.85714 14.2293 5.5 14.2293 6.07143 14.2293C6.5 14.2293 6.42857 14.2293 6.42857 14.5815C6.42857 14.6519 6.42857 14.7224 6.42857 14.8632C6.42857 18.174 6.42857 21.4144 6.42857 24.7251C6.42857 24.7956 6.42857 24.9365 6.42857 25.0069C6.42857 25.1478 6.42857 25.1478 6.57143 25.1478C6.64286 25.1478 6.71429 25.1478 6.78571 25.1478C7.78571 25.1478 8.85714 25.1478 9.85714 25.1478C10.2857 25.1478 10.2857 25.1478 10.2857 24.7956C10.2857 16.6947 10.2857 8.59391 10.2857 0.563524C10.2857 0.493082 10.2857 0.42264 10.2857 0.281756V0.352198Z" fill="white"/>
<path d="M48 35.5027C48 35.5027 47.9286 35.5027 47.8571 35.5027C46.2857 35.5027 44.7143 35.5027 43.1429 35.5027C43.0714 35.5027 43 35.5027 42.9286 35.5027C42.9286 35.5027 42.8571 35.5027 42.8571 35.5732C42.8571 35.5732 42.8571 35.714 42.8571 35.7845C42.8571 36.8411 42.8571 37.9682 42.8571 39.0248C42.8571 39.3066 42.8571 39.3066 43.1429 39.3066C43.2143 39.3066 43.2857 39.3066 43.4286 39.3066C43.7857 39.3066 44.0714 39.3066 44.4286 39.3066C44.6429 39.3066 44.6429 39.3066 44.6429 39.5179C44.6429 39.7997 44.6429 40.0814 44.6429 40.3632C44.6429 42.0538 44.6429 43.7444 44.6429 45.435C44.6429 45.7168 44.6429 45.9986 44.5 46.2803C44.3571 46.6326 44.1429 46.9143 43.7143 47.0552C42.9286 47.337 42.2143 47.0552 42 46.1395C42 46.1395 42 46.069 42 45.9986C42 45.7168 42 45.435 42 45.1533C42 40.3632 42 35.5732 42 30.7831C42 30.6422 42 30.4309 42 30.29C42 30.0082 42.0714 29.7265 42.2143 29.4447C42.5714 28.8107 43.5 28.7403 44 29.2334C44 29.2334 44.1429 29.3743 44.1429 29.4447C44.2143 29.5856 44.2857 29.7265 44.2857 29.8674C44.2857 30.0787 44.2857 30.3605 44.2857 30.5718C44.2857 31.3466 44.2857 32.1919 44.2857 32.9668C44.2857 33.0373 44.2857 33.1077 44.2857 33.2486C44.2857 33.3895 44.2857 33.3895 44.5 33.3895C45.5714 33.3895 46.7143 33.3895 47.7857 33.3895C47.7857 33.3895 47.8571 33.3895 47.9286 33.3895C47.9286 33.3895 47.9286 33.3895 48 33.3895C48 33.319 48 33.2486 48 33.1077C48 32.4033 48 31.6989 48 30.9944C48 30.4309 48 29.8674 47.9286 29.3038C47.9286 28.8107 47.7857 28.3176 47.6429 27.8245C47.3571 27.0497 46.9286 26.4157 46.2857 25.9226C45.7143 25.5704 45.0714 25.4295 44.4286 25.2886C43.7857 25.2182 43.1429 25.2886 42.5 25.2886C42.0714 25.2886 41.6429 25.2886 41.2857 25.4295C40.4286 25.6408 39.7143 25.9931 39.2143 26.627C38.7857 27.1201 38.5 27.6837 38.3571 28.2472C38.1429 29.0221 38 29.7969 38 30.5718C38 35.7845 38 40.9972 38 46.2803C38 46.6326 38 47.0552 38.0714 47.4074C38.2143 48.1118 38.4286 48.8163 38.9286 49.4502C39.8571 50.6477 41.2143 51.0704 42.5714 50.7182C43.1429 50.5773 43.6429 50.2955 44.0714 49.8729C44.5714 49.4502 45 48.8867 45.2857 48.3232C45.2857 48.3232 45.2857 48.1823 45.4286 48.1118C45.5 48.3936 45.5714 48.6754 45.6429 48.9571C45.7857 49.3798 45.8571 49.8024 46 50.2251C46 50.366 46 50.366 46.2143 50.366C46.7857 50.366 47.4286 50.366 48 50.366C48.1429 50.366 48.1429 50.366 48.2143 50.2251C48.2143 50.1547 48.2143 50.0138 48.2143 49.9433C48.2143 45.2237 48.2143 40.4337 48.2143 35.714C48.2143 35.6436 48.2143 35.5027 48.2143 35.4323C48.2143 35.2914 48.2143 35.2914 48.0714 35.221L48 35.5027Z" fill="white"/>
<path d="M74 40.2223C73.5714 39.4475 73.0714 38.7431 72.5714 38.0386C71.7143 36.9116 70.8571 35.8549 70 34.7279C69.6429 34.3052 69.3571 33.8826 69.1429 33.4599C68.8571 32.9668 68.6429 32.4033 68.5714 31.7693C68.5714 31.2058 68.5714 30.6422 68.5714 30.0787C68.5714 29.9378 68.5714 29.7265 68.6429 29.5856C68.7857 29.0925 69 28.8812 69.5714 28.8107C70.2857 28.8107 70.6429 29.0925 70.7857 29.7265C70.7857 29.9378 70.7857 30.2196 70.7857 30.5014C70.7857 31.4875 70.7857 32.4033 70.7857 33.3895C70.7857 33.4599 70.7857 33.5304 70.7857 33.6712C70.7857 33.8826 70.7857 33.8826 71 33.8826C72.0714 33.8826 73.2143 33.8826 74.2857 33.8826C74.5 33.8826 74.5 33.8826 74.5 33.6712C74.5 33.0373 74.5 32.4033 74.5 31.8398C74.5 31.0649 74.5 30.29 74.5 29.4447C74.5 28.8812 74.4286 28.3177 74.2143 27.7541C73.9286 26.8384 73.2857 26.134 72.3571 25.7817C72 25.6409 71.5714 25.5704 71.2143 25.5C70.5 25.4295 69.7143 25.4295 69 25.5C68.5714 25.5 68.0714 25.5704 67.6429 25.7113C66.3571 26.0635 65.4286 26.8384 65 28.1063C64.7857 28.6699 64.7143 29.3038 64.6429 29.8674C64.6429 30.7831 64.6429 31.6989 64.6429 32.6146C64.7143 33.6008 65 34.5165 65.4286 35.3619C65.7857 36.1367 66.2857 36.8411 66.8571 37.5456C67.6429 38.5317 68.3571 39.4475 69.1429 40.4337C69.5 40.9268 69.8571 41.4199 70.2143 41.913C70.4286 42.3356 70.6429 42.7583 70.6429 43.2514C70.7857 44.1671 70.7857 45.1533 70.6429 46.069C70.6429 46.2804 70.5714 46.5621 70.4286 46.7735C70.2857 46.9848 70.1429 47.1257 69.9286 47.2665C69.2143 47.5483 68.5 47.2665 68.2857 46.4917C68.2857 46.4917 68.2857 46.3508 68.2857 46.2804C68.2857 45.9986 68.2857 45.7168 68.2857 45.3646C68.2857 44.0967 68.2857 42.8287 68.2857 41.5607C68.2857 41.4903 68.2857 41.3494 68.2857 41.279C68.2857 41.279 68.2857 41.279 68.2857 41.2085C68.2857 41.2085 68.1429 41.2085 68.0714 41.2085C67 41.2085 65.8571 41.2085 64.7857 41.2085C64.7857 41.2085 64.6429 41.2085 64.5714 41.2085C64.5714 41.2085 64.5 41.2085 64.5 41.279C64.5 41.3494 64.5 41.4903 64.5 41.5607C64.5 42.406 64.5 43.1809 64.5 44.0262C64.5 44.2375 64.5 44.4489 64.5 44.6602C64.5 45.2942 64.5 45.8577 64.5 46.4917C64.5 47.1961 64.6429 47.9005 64.9286 48.5345C65.3571 49.5207 66.0714 50.1547 67 50.5773C67.2857 50.7182 67.5714 50.7886 67.8571 50.7886C68.7143 50.9295 69.5 50.9295 70.3571 50.8591C70.6429 50.8591 70.9286 50.8591 71.2143 50.7886C72.5714 50.5069 73.5714 49.8025 74.1429 48.6049C74.2857 48.3936 74.3571 48.1823 74.4286 47.971C74.7143 47.1961 74.8571 46.4212 74.8571 45.5759C74.8571 44.6602 74.8571 43.674 74.8571 42.7583C74.7857 41.8425 74.5714 40.9972 74.1429 40.2223H74Z" fill="white"/>
<path d="M30.6426 39.7998C30.2855 39.2362 29.9284 38.7431 29.5712 38.25C28.7141 37.123 27.8569 36.0663 26.9998 34.9393C26.7141 34.5166 26.4284 34.1644 26.1426 33.7418C25.8569 33.3191 25.6426 32.826 25.5712 32.3329C25.4284 31.4876 25.3569 30.6423 25.5712 29.7266C25.6426 29.0221 26.0712 28.8108 26.7141 28.8813C26.7141 28.8813 26.7141 28.8813 26.7855 28.8813C27.2141 28.8813 27.4998 29.163 27.5712 29.5857C27.6426 29.8674 27.6426 30.0788 27.6426 30.3605C27.6426 31.4172 27.6426 32.4738 27.6426 33.5304C27.6426 33.6009 27.6426 33.7418 27.6426 33.8122C27.6426 33.8122 27.6426 33.9531 27.7855 33.9531C27.7855 33.9531 27.9284 33.9531 27.9998 33.9531C29.0712 33.9531 30.0712 33.9531 31.1426 33.9531C31.1426 33.9531 31.2855 33.9531 31.3569 33.9531C31.3569 33.9531 31.4284 33.9531 31.4284 33.8826C31.4284 33.8826 31.4284 33.7418 31.4284 33.6713C31.4284 32.3329 31.4284 30.9945 31.4284 29.6561C31.4284 29.0221 31.3569 28.4586 31.1426 27.8951C30.8569 26.9089 30.1426 26.2045 29.1426 25.8523C28.7855 25.7114 28.4284 25.6409 28.0712 25.6409C27.4284 25.5705 26.7141 25.6409 26.0712 25.6409C25.6426 25.6409 25.2141 25.6409 24.7855 25.7818C23.2855 26.134 22.2855 26.9793 21.7855 28.4586C21.6426 28.8813 21.5712 29.3039 21.5712 29.797C21.5712 30.8536 21.5712 31.9103 21.5712 32.9669C21.7141 33.8826 21.9284 34.7279 22.3569 35.5732C22.7141 36.2777 23.1426 36.9821 23.7141 37.6161C24.4998 38.6023 25.2141 39.518 25.9998 40.5042C26.3569 40.9268 26.7141 41.4199 26.9998 41.913C27.2855 42.4061 27.4998 42.9697 27.5712 43.5332C27.6426 44.3785 27.6426 45.2942 27.5712 46.1395C27.5712 46.4213 27.4998 46.7031 27.3569 46.9144C27.2141 47.1257 27.0712 47.3371 26.7855 47.4075C26.1426 47.5484 25.4284 47.4779 25.1426 46.5622C25.1426 46.5622 25.1426 46.5622 25.1426 46.4918C25.1426 46.21 25.1426 45.9987 25.1426 45.7169C25.1426 44.4489 25.1426 43.1105 25.1426 41.8426C25.1426 41.7721 25.1426 41.6313 25.1426 41.5608C25.1426 41.4904 25.1426 41.4199 24.9998 41.4199C24.9998 41.4199 24.9284 41.4199 24.8569 41.4199C23.7855 41.4199 22.7141 41.4199 21.6426 41.4199C21.6426 41.4199 21.5712 41.4199 21.4998 41.4199C21.4284 41.4199 21.3569 41.4199 21.3569 41.5608C21.3569 41.6313 21.3569 41.7721 21.3569 41.8426C21.3569 42.6879 21.3569 43.4627 21.3569 44.3081C21.3569 45.0829 21.3569 45.7873 21.3569 46.5622C21.3569 47.1257 21.3569 47.6893 21.5712 48.2528C21.8569 49.3799 22.5712 50.2956 23.6426 50.7887C24.0712 51 24.5712 51.1409 25.0712 51.1409C25.9284 51.2114 26.7855 51.2114 27.6426 51.1409C28.2141 51.1409 28.7855 50.9296 29.2855 50.6478C30.2141 50.1547 30.7855 49.4503 31.1426 48.5346C31.4284 47.8302 31.6426 47.0553 31.6426 46.2804C31.7141 45.2238 31.6426 44.1672 31.6426 43.1105C31.5712 41.9835 31.2141 40.9268 30.6426 39.9406V39.7998Z" fill="white"/>
<path d="M14.2144 25.2182C14.7144 25.3591 15.2144 25.5 15.7144 25.5C16.2144 25.5 16.7144 25.5 17.2144 25.5C17.5001 25.5 17.7859 25.5 18.0716 25.4296C19.5716 25.1478 20.7144 24.3729 21.3573 22.9641C21.643 22.2597 21.8573 21.5552 21.9287 20.8508C22.0001 19.7942 22.0001 18.7376 21.9287 17.6809C21.8573 16.413 21.5001 15.2155 20.7859 14.1588C20.4287 13.5953 20.0001 13.0318 19.5716 12.4682C18.7859 11.4116 17.9287 10.4254 17.143 9.36878C16.7859 8.87569 16.4287 8.45304 16.143 7.8895C15.9287 7.39641 15.7144 6.90332 15.643 6.41022C15.643 5.84669 15.643 5.21271 15.643 4.64917C15.643 4.43785 15.643 4.22652 15.7144 4.08564C15.8573 3.66298 16.0716 3.45166 16.5001 3.45166C17.2859 3.38122 17.7144 3.66298 17.7859 4.43785C17.7859 4.64917 17.7859 4.8605 17.7859 5.07182C17.7859 6.05801 17.7859 7.0442 17.7859 8.03039C17.7859 8.10083 17.7859 8.17127 17.7859 8.31215C17.7859 8.45304 17.7859 8.52348 17.9287 8.52348C17.9287 8.52348 18.0001 8.52348 18.0716 8.52348C19.143 8.52348 20.143 8.52348 21.2144 8.52348C21.2144 8.52348 21.3573 8.52348 21.4287 8.52348C21.4287 8.52348 21.5001 8.52348 21.5001 8.45304C21.5001 8.3826 21.5001 8.24171 21.5001 8.17127C21.5001 7.32597 21.5001 6.48066 21.5001 5.7058C21.5001 5.21271 21.5001 4.64917 21.5001 4.15608C21.5001 3.59254 21.4287 3.02901 21.2144 2.46547C20.8573 1.47928 20.2144 0.845304 19.2859 0.493094C18.7859 0.35221 18.2859 0.211326 17.7144 0.211326C17.2144 0 16.7144 0 16.2144 0C15.7144 0 15.2859 0 14.7859 0.140884C13.3573 0.493094 12.3573 1.3384 11.9287 2.74724C11.7859 3.24033 11.643 3.73343 11.643 4.22652C11.643 5.21271 11.643 6.26934 11.643 7.25552C11.7144 8.10083 11.9287 8.87569 12.2859 9.58011C12.643 10.355 13.143 11.1298 13.7144 11.8343C14.5001 12.8204 15.2859 13.8066 16.0716 14.7928C16.4287 15.2859 16.8573 15.779 17.143 16.3425C17.4287 16.9061 17.643 17.4696 17.643 18.0331C17.643 18.808 17.643 19.5829 17.643 20.3577C17.643 20.6395 17.5716 20.9213 17.4287 21.203C17.2859 21.4848 17.0716 21.6961 16.7144 21.7666C16.0001 21.9075 15.4287 21.6257 15.2144 20.7804C15.2144 20.7804 15.2144 20.7804 15.2144 20.7099C15.143 20.4282 15.2144 20.076 15.2144 19.7942C15.2144 18.5262 15.2144 17.3287 15.2144 16.0608C15.2144 15.9903 15.2144 15.8494 15.2144 15.779C15.2144 15.779 15.2144 15.779 15.143 15.779C15.143 15.779 15.0716 15.779 15.0001 15.779C13.8573 15.779 12.7144 15.779 11.643 15.779C11.643 15.779 11.5716 15.779 11.5001 15.779C11.5001 15.779 11.4287 15.779 11.4287 15.8494C11.4287 15.9199 11.4287 16.0608 11.4287 16.1312C11.4287 16.9061 11.4287 17.7514 11.4287 18.5262C11.4287 19.2307 11.4287 19.9351 11.4287 20.7099C11.4287 21.3439 11.4287 21.9075 11.643 22.5414C12.0001 23.8798 12.8573 24.7956 14.2144 25.2182Z" fill="white"/>
<path d="M82.1426 35.0096C82.1426 35.0096 82.1427 35.0801 82.2141 35.0801C82.2855 35.0801 82.3569 35.0801 82.4284 35.0801C83.4998 35.0801 84.4998 35.0801 85.5712 35.0801C85.5712 35.0801 85.7141 35.0801 85.7855 35.0801C85.8569 35.0801 85.9284 35.0801 85.9284 34.9392C85.9284 34.9392 85.9284 34.8687 85.9284 34.7983C85.9284 33.2486 85.9284 31.7693 85.9284 30.2196C85.9284 29.4447 85.8569 28.7403 85.6426 27.9654C85.2855 26.9792 84.7141 26.2044 83.7141 25.7817C83.2855 25.5704 82.7855 25.4295 82.2855 25.4295C81.5712 25.3591 80.9284 25.4295 80.2141 25.4295C79.7855 25.4295 79.3569 25.4295 78.9998 25.5704C77.9998 25.7817 77.2141 26.3452 76.6426 27.1906C76.3569 27.6132 76.2141 28.0359 76.0712 28.529C75.8569 29.2334 75.8569 29.9378 75.8569 30.6422C75.8569 33.1077 75.8569 35.6436 75.8569 38.1091C75.8569 40.5745 75.8569 42.9696 75.8569 45.435C75.8569 45.7168 75.8569 45.9986 75.8569 46.2803C75.8569 46.9847 75.9998 47.6892 76.2855 48.3936C76.7855 49.5911 77.6427 50.366 78.9284 50.7182C79.3569 50.8591 79.8569 50.9295 80.3569 50.9295C80.7141 50.9295 81.1426 50.9295 81.4998 50.9295C81.8569 50.9295 82.1427 50.9295 82.4998 50.8591C83.4284 50.7182 84.2141 50.2955 84.8569 49.5911C85.2855 49.098 85.5712 48.5345 85.7141 47.9709C85.9284 47.1961 85.9998 46.4212 85.9998 45.6464C85.9998 43.8149 85.9998 41.9129 85.9998 40.0814C85.9998 40.011 85.9998 39.9406 85.9998 39.7997C85.9998 39.7997 85.9998 39.6588 85.8569 39.6588C85.7855 39.6588 85.7141 39.6588 85.6426 39.6588C84.6426 39.6588 83.5712 39.6588 82.5712 39.6588C82.2141 39.6588 82.2141 39.6588 82.2141 40.011C82.2141 41.772 82.2141 43.6035 82.2141 45.3646C82.2141 45.5055 82.2141 45.5759 82.2141 45.7168C82.2141 45.9986 82.2141 46.2803 81.9998 46.5621C81.7855 46.9143 81.4998 47.1256 81.1426 47.1256C81.0712 47.1256 80.9998 47.1256 80.8569 47.1256C80.4284 47.1256 80.0712 46.9143 79.9284 46.4917C79.9284 46.3508 79.8569 46.2803 79.7855 46.1394C79.7141 45.8577 79.7855 45.5759 79.7855 45.3646C79.7855 40.4336 79.7855 35.5731 79.7855 30.6422C79.7855 30.5013 79.7855 30.3604 79.7855 30.2196C79.7855 30.0082 79.7855 29.7969 79.9284 29.5856C79.9998 29.3743 80.1426 29.2334 80.2855 29.1629C80.7855 28.9516 81.2141 28.9516 81.7141 29.1629C81.8569 29.2334 81.9284 29.3743 81.9998 29.5151C82.0712 29.656 82.1426 29.7969 82.1426 29.9378C82.1426 30.1491 82.1426 30.4309 82.1426 30.6422C82.1426 31.9806 82.1426 33.319 82.1426 34.6574C82.1426 34.7278 82.1426 34.8687 82.1426 34.9392V35.0096Z" fill="white"/>
<path d="M35.7142 25.2182C35.7142 25.2182 35.8571 25.2182 35.9285 25.2182C36.5714 25.2182 37.2856 25.2182 37.9285 25.2182C38.2142 25.2182 38.4999 25.2182 38.8571 25.2182C38.9999 25.2182 38.9999 25.2182 38.9999 25.0773C38.9999 24.7955 38.9999 24.5138 39.0714 24.232C39.2142 23.1049 39.2856 21.9779 39.4285 20.7803C39.4285 20.7803 39.4285 20.6395 39.4285 20.569C39.4285 20.569 39.4285 20.4986 39.4999 20.4986C39.5714 20.4986 39.6428 20.4986 39.7142 20.4986C40.4285 20.4986 41.0714 20.4986 41.7856 20.4986C42.2142 20.4986 42.1428 20.4986 42.2142 20.9212C42.3571 22.1892 42.4999 23.4571 42.6428 24.7251C42.6428 24.866 42.6428 25.0069 42.6428 25.1478C42.6428 25.1478 42.6428 25.2182 42.7142 25.2182C42.7856 25.2182 42.8571 25.2182 42.9285 25.2182C43.4285 25.2182 43.9285 25.2182 44.4285 25.2182C44.9285 25.2182 45.3571 25.2182 45.8571 25.2182C46.3571 25.2182 46.3571 25.2182 46.2856 24.7955C46.1428 23.598 45.9285 22.3301 45.7856 21.1326C45.6428 20.0759 45.4999 19.0193 45.3571 18.0331C45.2142 16.8356 44.9999 15.5676 44.8571 14.3701C44.7142 13.4544 44.6428 12.6091 44.4999 11.6933C44.3571 10.4958 44.1428 9.22786 43.9999 8.03035C43.8571 6.97372 43.7142 5.91709 43.5714 4.86046C43.4285 3.80383 43.2856 2.7472 43.1428 1.76101C43.1428 1.33836 42.9999 0.915709 42.9999 0.493057C42.9999 0.352173 42.9999 0.352173 42.8571 0.352173C42.8571 0.352173 42.7142 0.352173 42.6428 0.352173C41.3571 0.352173 39.9999 0.352173 38.7142 0.352173C38.6428 0.352173 38.5714 0.352173 38.4999 0.352173C38.4999 0.352173 38.4285 0.352173 38.4285 0.422615C38.4285 0.422615 38.4285 0.493057 38.4285 0.563499C38.3571 1.19748 38.2856 1.9019 38.2142 2.53587C38.0714 3.66295 37.9285 4.71958 37.7856 5.77621C37.6428 6.90328 37.4999 8.03035 37.3571 9.22786C37.2142 10.1436 37.1428 11.0594 36.9999 11.9751C36.8571 13.1022 36.7142 14.2292 36.5714 15.3563C36.4285 16.4129 36.2856 17.54 36.1428 18.5966C35.9999 19.5124 35.9285 20.4281 35.7856 21.3439C35.6428 22.3301 35.5714 23.2458 35.4285 24.232C35.4285 24.5842 35.3571 24.866 35.2856 25.2182C35.2856 25.3591 35.2856 25.3591 35.4285 25.3591L35.7142 25.2182ZM40.1428 14.511C40.2142 13.6657 40.3571 12.8204 40.4285 11.9751C40.5714 10.9185 40.6428 9.7914 40.7856 8.73477C40.7856 8.59389 40.7856 8.38256 40.7856 8.24168C40.7856 8.17123 40.7856 8.10079 40.8571 7.95991C40.9999 8.9461 41.0714 9.93228 41.2142 10.9185C41.3571 12.1864 41.4999 13.4544 41.6428 14.7223C41.7142 15.3563 41.7856 15.9903 41.8571 16.6947C41.8571 16.8356 41.8571 16.8356 41.7142 16.8356C41.1428 16.8356 40.5714 16.8356 39.9999 16.8356C39.8571 16.8356 39.8571 16.8356 39.8571 16.6947C39.9285 15.9903 39.9999 15.2859 40.0714 14.5815L40.1428 14.511Z" fill="white"/>
<path d="M75.9998 20.4986C76.6426 20.4986 77.3569 20.4986 77.9998 20.4986C78.1426 20.4986 78.2855 20.4986 78.4284 20.4986C78.4998 20.4986 78.5712 20.4986 78.5712 20.6395C78.5712 20.9212 78.5712 21.203 78.6426 21.5552C78.7855 22.6823 78.8569 23.7389 78.9998 24.866C78.9998 24.9364 78.9998 25.0773 78.9998 25.1478C78.9998 25.1478 78.9998 25.2886 79.1426 25.2886C79.1426 25.2886 79.2141 25.2886 79.2855 25.2886C80.3569 25.2886 81.4284 25.2886 82.4998 25.2886C82.5712 25.2886 82.6426 25.2886 82.7141 25.2886C82.7141 25.0069 82.7141 24.7251 82.6426 24.4433C82.4284 22.8232 82.2141 21.203 81.9998 19.5828C81.8569 18.5262 81.7141 17.54 81.5712 16.4834C81.3569 14.8632 81.1426 13.1726 80.9284 11.5525C80.7855 10.3549 80.6426 9.15742 80.4284 7.95991C80.2855 6.69195 80.0712 5.424 79.9284 4.15604C79.7855 3.16985 79.6426 2.11322 79.4998 1.12703C79.4998 0.915709 79.4998 0.704383 79.4284 0.493057C79.4284 0.352173 79.4284 0.352173 79.2855 0.352173C79.0712 0.352173 78.8569 0.352173 78.7141 0.352173C77.4998 0.352173 76.2855 0.352173 75.0712 0.352173C74.8569 0.352173 74.8569 0.352173 74.8569 0.563499C74.7855 1.33836 74.6426 2.18366 74.5712 2.95853C74.4284 4.29692 74.2855 5.63532 74.0712 6.90328C73.8569 8.38256 73.7141 9.93228 73.4998 11.4116C73.3569 12.75 73.2141 14.0179 72.9998 15.3563C72.7855 16.8356 72.6426 18.3853 72.4284 19.8646C72.2141 21.4848 71.9998 23.1049 71.8569 24.6547C71.8569 24.7955 71.8569 24.9364 71.8569 25.0773C71.8569 25.1478 71.8569 25.2182 71.9284 25.2182C71.9284 25.2182 72.0712 25.2182 72.1426 25.2182C73.0712 25.2182 73.9998 25.2182 74.9284 25.2182C74.9284 25.2182 74.9998 25.2182 75.0712 25.2182C75.2141 25.2182 75.2141 25.2182 75.2141 25.0773C75.2141 25.0773 75.2141 24.9364 75.2141 24.866C75.2855 24.0911 75.3569 23.3163 75.4998 22.5414C75.4998 21.9074 75.6426 21.3439 75.7141 20.7099C75.7141 20.569 75.7141 20.4986 75.9284 20.4986H75.9998ZM76.3569 15.0746C76.4998 14.0179 76.5712 12.9613 76.7141 11.9047C76.8569 10.7071 76.9998 9.43919 77.1426 8.24168C77.2855 9.65052 77.4284 11.0594 77.6426 12.5386C77.7855 13.8066 77.9284 15.0041 78.0712 16.2721C78.0712 16.4129 78.0712 16.5538 78.0712 16.6947C78.0712 16.7652 78.0712 16.8356 77.9284 16.8356C77.3569 16.8356 76.7855 16.8356 76.2141 16.8356C76.0712 16.8356 76.0712 16.8356 76.0712 16.6947C76.0712 16.2016 76.1426 15.7085 76.2141 15.2154L76.3569 15.0746Z" fill="white"/>
<path d="M31.5716 21.4144C30.0716 21.4144 28.643 21.4144 27.143 21.4144C26.7859 21.4144 26.7859 21.4144 26.7859 21.0621C26.7859 18.8784 26.7859 16.6947 26.7859 14.511C26.7859 14.1588 26.7859 14.1588 27.143 14.1588C28.143 14.1588 29.2144 14.1588 30.2144 14.1588C30.2859 14.1588 30.4287 14.1588 30.5001 14.1588C30.5716 14.1588 30.643 14.1588 30.643 14.0179C30.643 13.9475 30.643 13.8771 30.643 13.7362C30.643 12.9613 30.643 12.1865 30.643 11.3411C30.643 11.0594 30.643 10.7776 30.643 10.4958C30.643 10.355 30.643 10.355 30.5001 10.355C30.0716 10.355 29.5716 10.355 29.143 10.355C28.4287 10.355 27.7144 10.355 27.0716 10.355C26.9287 10.355 26.9287 10.355 26.8573 10.2141C26.8573 10.2141 26.8573 10.1436 26.8573 10.0732C26.8573 8.10081 26.8573 6.12844 26.8573 4.15606C26.8573 3.80385 26.8573 3.80385 27.2144 3.80385C28.5716 3.80385 30.0001 3.80385 31.3573 3.80385C31.4287 3.80385 31.5716 3.80385 31.643 3.80385C31.643 3.80385 31.7144 3.80385 31.7144 3.73341C31.7144 3.73341 31.7144 3.59253 31.7144 3.52208C31.7144 2.46545 31.7144 1.47927 31.7144 0.422637C31.7144 0.352195 31.7144 0.281753 31.7144 0.140869H31.3573C28.7144 0.140869 26.0716 0.140869 23.4287 0.140869C23.3573 0.140869 23.2859 0.140869 23.143 0.140869C23.0001 0.140869 23.0001 0.140869 22.9287 0.281753C22.9287 0.281753 22.9287 0.422637 22.9287 0.493079C22.9287 8.59391 22.9287 16.6243 22.9287 24.7251C22.9287 24.7956 22.9287 24.866 22.9287 25.0069C22.9287 25.0773 22.9287 25.1478 23.0716 25.1478C23.143 25.1478 23.2144 25.1478 23.2859 25.1478C26.0716 25.1478 28.7859 25.1478 31.5716 25.1478C31.643 25.1478 31.7144 25.1478 31.7859 25.1478C31.7859 25.1478 31.8573 25.1478 31.8573 25.0773C31.8573 25.0069 31.8573 24.9364 31.8573 24.7956C31.8573 23.7389 31.8573 22.7527 31.8573 21.6961C31.8573 21.3439 31.8573 21.3439 31.5001 21.3439L31.5716 21.4144Z" fill="white"/>
<path d="M20.2859 46.9144C20.2859 46.9144 20.143 46.9144 20.0001 46.9144C18.643 46.9144 17.2144 46.9144 15.8573 46.9144C15.7859 46.9144 15.643 46.9144 15.5716 46.9144C15.5716 46.9144 15.4287 46.9144 15.4287 46.7735C15.4287 46.7735 15.4287 46.703 15.4287 46.6326C15.4287 44.3784 15.4287 42.1243 15.4287 39.9406C15.4287 39.9406 15.4287 39.8702 15.4287 39.7997C15.4287 39.7293 15.4287 39.6588 15.5716 39.6588C15.643 39.6588 15.7859 39.6588 15.8573 39.6588C16.8573 39.6588 17.8573 39.6588 18.8573 39.6588C18.9287 39.6588 19.0716 39.6588 19.143 39.6588C19.2144 39.6588 19.2859 39.6588 19.2859 39.5179C19.2859 39.5179 19.2859 39.4475 19.2859 39.3771C19.2859 38.3204 19.2859 37.1934 19.2859 36.1367C19.2859 36.1367 19.2859 35.9958 19.2859 35.9254C19.2859 35.9254 19.2859 35.855 19.2144 35.855C19.143 35.855 19.0001 35.855 18.9287 35.855C17.9287 35.855 16.8573 35.855 15.8573 35.855C15.5001 35.855 15.5001 35.855 15.5001 35.5027C15.5001 33.5304 15.5001 31.6284 15.5001 29.6561C15.5001 29.5856 15.5001 29.5152 15.5001 29.4447C15.5001 29.4447 15.5001 29.3039 15.643 29.3039C15.7144 29.3039 15.8573 29.3039 15.9287 29.3039C17.2859 29.3039 18.5716 29.3039 19.9287 29.3039C20.0716 29.3039 20.2144 29.3039 20.2859 29.3039C20.3573 29.3039 20.4287 29.3039 20.4287 29.163C20.4287 29.163 20.4287 29.163 20.4287 29.0925C20.4287 28.0359 20.4287 26.9088 20.4287 25.8522C20.4287 25.6409 20.4287 25.6409 20.2144 25.6409C20.2144 25.6409 20.143 25.6409 20.0716 25.6409C17.4287 25.6409 14.7144 25.6409 12.0716 25.6409C11.643 25.6409 11.7144 25.6409 11.7144 26.0635C11.7144 26.0635 11.7144 26.2044 11.7144 26.2748V38.1795C11.7144 42.1947 11.7144 46.2099 11.7144 50.2251C11.7144 50.366 11.7144 50.4364 11.7144 50.5773C11.7144 50.6478 11.7144 50.7182 11.8573 50.7182C11.9287 50.7182 12.0001 50.7182 12.143 50.7182C14.8573 50.7182 17.643 50.7182 20.3573 50.7182C20.3573 50.7182 20.5001 50.7182 20.5716 50.7182C20.7144 50.7182 20.7144 50.7182 20.7859 50.5773C20.7859 50.5773 20.7859 50.4365 20.7859 50.366C20.7859 49.5911 20.7859 48.8163 20.7859 47.971C20.7859 47.6892 20.7859 47.4074 20.7859 47.1257C20.7859 46.9144 20.7859 46.9144 20.5716 46.9144H20.2859Z" fill="white"/>
<path d="M64.9999 24.9364C64.9999 24.9364 64.9999 24.7956 64.9999 24.6547C64.9999 17.8922 64.9999 11.1298 64.9999 4.43782C64.9999 4.29693 64.9999 4.15605 64.9999 4.08561C64.9999 4.08561 64.9999 4.01516 64.9999 3.94472C65.0714 3.94472 65.1428 3.94472 65.2856 3.94472C66.1428 3.94472 66.9285 3.94472 67.7856 3.94472C67.8571 3.94472 67.9999 3.94472 68.0714 3.94472C68.0714 3.94472 68.1428 3.94472 68.1428 3.87428C68.1428 3.87428 68.1428 3.80384 68.1428 3.7334C68.1428 2.67677 68.1428 1.62014 68.1428 0.563506C68.1428 0.563506 68.1428 0.493064 68.1428 0.422622C68.1428 0.35218 68.1428 0.281738 67.9999 0.281738C67.9999 0.281738 67.8571 0.281738 67.7856 0.281738C64.5714 0.281738 61.3571 0.281738 58.1428 0.281738C58.1428 0.281738 57.9999 0.281738 57.9285 0.281738C57.8571 0.281738 57.7856 0.281738 57.7856 0.422622C57.7856 0.422622 57.7856 0.493064 57.7856 0.563506C57.7856 1.54969 57.7856 2.60632 57.7856 3.59251C57.7856 3.59251 57.7856 3.7334 57.7856 3.80384C57.7856 3.87428 57.7856 3.94472 57.9285 3.94472C57.9999 3.94472 58.0714 3.94472 58.1428 3.94472C58.9999 3.94472 59.8571 3.94472 60.7142 3.94472C61.0714 3.94472 61.0714 3.94472 61.0714 4.29693C61.0714 4.36737 61.0714 4.43782 61.0714 4.50826V14.6519C61.0714 18.0331 61.0714 21.4848 61.0714 24.866C61.0714 25.0069 61.0714 25.0773 61.0714 25.2182C61.0714 25.2182 61.0714 25.2886 61.1428 25.2886C61.1428 25.2886 61.2142 25.2886 61.2856 25.2886C62.3571 25.2886 63.4999 25.2886 64.5714 25.2886C64.8571 25.2886 64.8571 25.2886 64.8571 25.0069L64.9999 24.9364Z" fill="white"/>
<path d="M130.928 46.9848C130.928 46.9848 130.928 46.8439 130.785 46.8439C130.714 46.8439 130.571 46.8439 130.5 46.8439C129.214 46.8439 128 46.8439 126.714 46.8439C126.214 46.8439 126.285 46.9143 126.285 46.4212C126.285 41.5607 126.285 36.7002 126.285 31.9102C126.285 30.0083 126.285 28.1063 126.285 26.2044C126.285 26.1339 126.285 25.9931 126.285 25.9226C126.285 25.8522 126.285 25.7817 126.143 25.7817C126.071 25.7817 126 25.7817 125.857 25.7817C124.857 25.7817 123.857 25.7817 122.857 25.7817C122.357 25.7817 122.428 25.7817 122.428 26.2044C122.428 30.2196 122.428 34.2348 122.428 38.25V50.2251C122.428 50.2251 122.428 50.4364 122.428 50.5773C122.428 50.7182 122.428 50.7182 122.643 50.7886C122.714 50.7886 122.785 50.7886 122.857 50.7886H130.5C130.5 50.7886 130.643 50.7886 130.785 50.7886C130.928 50.7886 130.928 50.7886 130.928 50.6478C130.928 50.2956 130.928 50.0138 130.928 49.6616C130.928 48.8163 130.928 47.971 130.928 47.1257V46.9848Z" fill="white"/>
<path d="M36.5715 38.25C36.5715 34.2348 36.5715 30.2196 36.5715 26.2044C36.5715 26.0635 36.5715 25.9931 36.5715 25.8522C36.5715 25.7817 36.5715 25.7113 36.4286 25.7113C36.3572 25.7113 36.2144 25.7113 36.1429 25.7113C35.1429 25.7113 34.2144 25.7113 33.2144 25.7113C32.7144 25.7113 32.7144 25.7113 32.7144 26.134C32.7144 34.1643 32.7144 42.1947 32.7144 50.2251C32.7144 50.2956 32.7144 50.366 32.7144 50.4364C32.7144 50.6478 32.7144 50.6478 32.9286 50.6478C33.0001 50.6478 33.0715 50.6478 33.1429 50.6478C34.1429 50.6478 35.1429 50.6478 36.1429 50.6478C36.6429 50.6478 36.5715 50.6478 36.5715 50.2251C36.5715 46.2099 36.5715 42.1947 36.5715 38.1795V38.25Z" fill="white"/>
</g>
<defs>
<clipPath id="clip0_205_153">
<rect width="131" height="51" fill="white"/>
</clipPath>
</defs>
</svg>
