<svg width="297" height="149" viewBox="0 0 297 149" fill="none" xmlns="http://www.w3.org/2000/svg">
<path d="M34.3614 26.6616C36.2371 34.0464 37.5907 35.0017 37.5907 42.5706C35.0483 42.5714 33.678 40.2219 32.7138 40.149C27.9356 39.7877 19.9443 37.2728 16.5341 33.7921C15.6826 32.9229 13.7295 29.223 14.1616 30.1932C16.0528 34.4401 18.163 38.8953 20.6861 42.8061C22.2195 45.1827 24.218 47.0582 26.5846 48.5575C28.0681 49.4974 29.8046 49.3295 31.2309 50.1384C31.6552 50.3789 29.6894 49.8838 29.2867 49.7011C26.9235 48.629 22.6387 48.6642 20.8509 50.3065C19.6484 51.4112 19.335 49.971 19.2033 52.2573C19.1329 53.4787 12.8259 53.4043 12.0856 53.4345C8.23869 53.5916 4.36983 53.4682 0.519266 53.4682C-1.39395 53.4682 2.56398 60.2807 2.9907 61.1368C4.89371 64.9546 7.36705 68.4139 10.2402 71.5298C10.3737 71.6746 13.1803 74.5135 12.9094 74.6242C10.1505 75.7505 6.2625 75.0936 3.32022 75.8686C-4.10343 77.8241 9.55359 84.1477 6.74727 85.4208C3.9616 86.6845 -1.16493 85.4246 0.552219 90.4323C1.23609 92.4267 2.24504 94.1844 3.51793 95.8474C4.29628 96.8643 6.91136 98.5694 7.24155 99.749C7.333 100.076 6.06218 100.278 5.8246 100.388C4.66779 100.925 3.68242 101.352 2.66117 102.171C-1.0979 105.185 15.2683 111.703 13.14 113.875C12.3223 114.71 9.71298 113.114 9.71298 115.221C9.71298 117.593 15.8721 118.345 17.4238 118.853C22.0495 120.368 17.1176 122.642 14.4581 123.999C13.8009 124.335 10.738 126.724 13.0412 126.724H33.1751C34.542 126.724 45.1988 125.343 45.3016 128.069C45.398 130.629 45.3016 133.21 45.3016 135.771C45.3016 137.126 48.4664 133.669 50.1456 133.114C54.1671 131.786 59.2645 131.663 63.3595 132.778C66.2091 133.554 64.7516 140.192 64.8753 142.465C64.9212 143.307 66.095 141.896 66.3252 141.725C68.5308 140.082 70.9956 138.628 73.3111 137.15C74.4839 136.402 82.0468 131.01 83.7241 132.912C84.415 133.696 83.0132 136.93 84.449 137.016C86.2041 137.121 87.353 136.177 88.9305 135.469C92.0362 134.074 104.023 130.171 104.023 136.713C104.023 137.293 103.728 140.581 104.352 140.581C105.522 140.581 107.484 139.187 108.603 138.832C112.137 137.71 115.773 137.645 119.444 137.621C121.273 137.61 135.459 136.599 135.459 139.303C135.459 140.854 133.496 145.681 136.316 144.281C139.929 142.487 145.428 139.653 149.431 139.438L149.482 139.435C151.566 139.323 153.486 139.219 154.704 141.254C156.067 143.531 156.812 146.107 156.812 148.754C156.812 149.733 158.297 147.514 159.02 146.871C162.609 143.68 166.439 140.805 170.059 137.655C172.613 135.433 176.713 129.803 180.802 130.995C182.693 131.547 182.782 136.616 184.097 137.958C184.781 138.656 188.134 134.561 188.974 133.989C191.211 132.466 192.078 133.119 194.18 134.729C195.213 135.519 198.811 140.254 199.519 139.303C201.298 136.913 203.861 134.339 206.604 133.114C209.184 131.962 216.628 140.221 217.28 137.89C218.897 132.114 223.637 137.708 226.342 139.303C230.407 141.7 230.304 135.638 233.69 138.563C234.418 139.191 241.219 142.629 241.599 140.884C242.603 136.273 244.112 131.763 245.191 127.127C246.248 122.585 249.31 125.385 252.572 126.724C261.319 130.314 269.803 135 279.461 135.2C283.572 135.284 274.324 134.1 273.662 129.843C273.017 125.7 270.747 120.013 267.071 117.869C266.826 117.726 281.957 117.254 282.51 117.071C284.58 116.388 297.367 125.017 296.992 122.15C290.006 111.75 272.952 96.85 295.245 95.8474C295.245 93.2168 287.975 83.5454 290.006 82.3937C291.045 81.8044 291.051 79.7425 290.731 78.7612C289.894 76.1974 288.966 75.0615 286.974 73.9178C286.093 73.4116 292.482 70.0785 292.972 69.8145C294.88 68.7862 294.123 67.7525 293.499 66.1147C292.093 62.4252 289.921 60.3184 287.699 57.4034C286.761 56.172 291.752 54.9845 292.016 53.7709C292.911 49.6603 278.703 48.4287 282.097 45.9341C282.996 45.2737 286.6 42.7693 285.986 41.3598C284.905 38.8786 275.749 39.1992 273.662 38.8036C272.448 38.5736 260.018 37.2581 262.392 34.7002C263.942 33.0299 266.081 31.3972 266.511 28.9823C266.9 26.7984 246.802 29.4228 250.232 25.9216C250.708 25.4358 253.997 21.2248 252.572 20.8092C249.925 20.0371 246.142 20.7756 243.411 20.7756C242.541 20.7756 237.537 21.4353 238.534 20.0356C239.357 18.8815 238.778 17.1431 237.48 17.1431C234.16 17.1431 228.346 19.8392 227.1 15.2595C226.171 11.8446 227.668 9.06092 223.146 12.0979C221.404 13.2674 212.624 20.9345 210.327 18.8248C210.032 18.5534 210.357 17.498 209.602 17.883C207.27 19.073 205.107 21.2363 202.946 22.7264C201.662 23.6116 193.218 29.7657 191.808 26.527C191.271 25.2942 190.961 22.2332 189.073 23.5672C186.234 25.5731 185.495 28.3627 183.207 30.6977C181.75 32.1855 176.929 23.4574 176.419 22.6255C174.703 19.8226 173.62 14.8596 170.323 18.1521C168.826 19.647 163.297 27.1434 160.964 25.0135C159.527 23.7004 159.205 22.0164 157.867 23.8027C156.745 25.3004 156.251 27.8673 154.308 26.0898C152.359 24.3061 146.821 18.3817 144.126 18.9929C142.719 19.312 143.729 21.7016 141.687 20.7756C139.47 19.7699 138.585 16.1629 136.942 14.4859C135.767 13.2864 130.955 18.6595 130.187 19.5311C127.374 22.7216 126.677 19.2675 124.98 16.134C122.721 11.9611 119.412 7.96831 118.06 3.35297C117.439 1.23119 118.39 -1.66655 116.017 1.20037C112.049 5.9953 107.899 10.8521 104.286 15.9322C102.912 17.8652 101.444 21.8464 99.2776 23.0627C97.384 24.1257 93.4124 15.2273 92.8848 14.2505C90.8893 10.5558 90.98 10.3885 88.601 13.5105C87.5681 14.866 87.4368 17.6477 85.8989 15.6295C85.3351 14.8897 82.5355 10.9278 82.0764 12.3333C81.4501 14.2512 80.9412 16.5376 78.7482 16.5376C76.8129 16.5376 71.9636 15.5711 70.3454 16.6722C67.248 18.7798 68.94 22.9959 64.2821 19.4302C62.7455 18.2539 61.3439 16.9834 60.1301 15.4613C59.9462 15.2307 58.7055 13.0598 58.3507 13.4433C56.9631 14.9429 55.385 19.5934 55.385 21.6837C55.385 23.1733 54.5014 24.4675 53.5726 25.6525C51.8123 27.8985 51.4543 30.0528 50.3433 32.5476C49.3626 34.7497 36.1568 23.092 34.8886 20.7756C32.8686 17.086 33.9863 25.1851 34.3614 26.6616Z" fill="white"/>
</svg>
