<svg width="573" height="205" viewBox="0 0 573 205" fill="none" xmlns="http://www.w3.org/2000/svg">
<path d="M47.9021 78.3753C46.3941 81.8566 45.528 86.5948 43.7253 90.2124C38.4027 86.328 31.469 83.8775 24.8187 85.3581C21.0173 86.2044 29.9308 97.7139 24.7548 99.1955C22.3561 99.8822 37.0179 111.439 29.8702 111.816C20.9826 112.284 34.6178 120.114 31.9164 123.091C29.2457 126.034 -8.45387 128.209 3.65368 133.341C6.90438 134.719 20.6554 138.922 21.6216 142.309C21.837 143.065 13.5486 145.532 12.6696 145.769C10.3029 146.407 -3.22005 155.355 0.712311 156.787C18.4914 163.265 38.8749 158.938 57.3017 161.4C61.2156 161.923 61.7649 164.143 62.0974 167.806C62.3506 170.597 67.5968 169.443 69.5147 169.472C74.0763 169.541 74.4261 170.359 77.3157 172.675C78.3268 173.485 83.6853 168.149 84.861 167.678C96.3972 163.055 99.8734 185.626 108.84 180.939C111.308 179.649 115.101 177.218 117.344 180.106C119.24 182.548 119.705 194.448 123.418 192.278C126.956 190.211 135.782 182.303 140.363 184.719C142.885 186.048 139.816 192.772 143.433 192.278C147.678 191.698 186.373 173.113 186.402 173.444C186.752 177.42 184.056 189.415 186.658 192.022C186.992 192.356 194.579 187.979 195.866 187.922C199.659 187.753 199.243 189.934 201.62 191.125C206.227 193.432 221.97 179.928 225.535 177.672L225.634 177.609C228.624 175.717 229.614 175.09 230.203 178.633C230.595 180.991 245.794 170.241 247.531 169.28C251.224 167.237 255.098 165.288 259.425 166.077C262.556 166.647 260.979 167.278 263.133 164.923C267.545 160.102 273.352 175.898 274.515 178.184C275.123 179.379 276.811 185.651 279.247 184.078C281.715 182.484 283.942 179.631 286.025 177.544C290.299 173.261 290.886 180.157 293.442 184.206C296.284 188.707 306.6 207.567 313.264 204.706C316.29 203.407 320.941 193.415 323.879 194.2C325.913 194.743 326.107 198.822 327.524 200.158C329.665 202.176 335.191 197.925 336.859 197.019C344.571 192.828 352.346 185.238 360.518 182.348C362.481 181.654 363.449 183.958 364.802 184.975C365.154 185.239 370.404 175.72 372.156 175.045C373.964 174.348 374.442 180.875 376.888 180.875C379.223 180.875 380.373 176.158 382.706 176.583C386.934 177.353 387.374 184.761 390.891 185.936C395.569 187.498 403.395 178.108 407.132 175.75C408.969 174.591 408.59 178.134 409.434 177.287C410.327 176.393 415.225 167.66 416.34 168.575C417.483 169.512 418.654 174.484 420.305 171.778C423.297 166.872 424.729 166.089 428.809 170.176C431.746 173.119 434.856 178.799 436.802 173.508C437.991 170.275 440.923 169.84 443.58 168.319C449.936 164.68 462.555 167.008 469.924 167.166C478.339 167.345 485.526 170.405 493.455 172.675C496.475 173.539 496.756 172.81 500.745 176.006C503.405 178.139 508.532 184.225 512.127 181.003C519.531 174.365 517.473 163.959 529.775 167.934C534.137 169.344 550.236 181.368 554.457 178.441C555.614 177.638 554.69 170.417 554.712 169.344C554.775 166.348 553.948 164.917 551.707 161.208C551.051 160.122 544.534 143.425 548.062 145.192C551.144 146.736 553.649 151.078 555.672 153.713C555.681 153.725 559.201 158.377 559.252 158.197C561.515 150.264 558.969 139.442 559.444 131.227C559.572 129.017 559.612 122.811 562.13 121.297C563.243 120.628 564.716 120.884 565.711 119.888C567.45 118.145 562.705 115.371 561.874 114.506C554.306 106.633 562.565 101.286 567.501 94.1346C569.683 90.9733 573.215 82.8566 568.332 80.105C565.869 78.7168 560.587 79.4161 562.449 75.6847C564.589 71.3967 573 64.1111 573 59.477C573 55.9136 555.677 57.071 554.968 57.0426C546.335 56.6966 537.689 56.5338 529.071 55.8895C527.569 55.7772 519.529 56.2189 518.457 54.6082C517.484 53.1465 525.486 49.97 524.531 47.8176C523.188 44.789 515.358 45.2114 512.83 42.1161C511.36 40.3162 510.976 37.9483 510.976 35.7099C510.976 32.4413 508.726 33.0856 508.674 32.2505C508.493 29.351 508.561 26.0142 504.965 25.588C492.106 24.0643 479.077 26.4849 466.216 26.4849C463.714 26.4849 458.684 27.2046 456.88 24.8193C455.994 23.648 455.944 21.8117 454.578 20.9756C448.305 17.1348 441.864 33.1569 436.674 24.2427C434.035 19.7098 424.314 28.4667 423.566 25.8443C420.217 14.1018 413.129 31.263 408.283 26.2287C406.66 24.5421 404.507 18.7656 401.633 18.9256C400.059 19.0132 398.837 22.0176 397.03 20.2068C395.035 18.209 393.756 15.481 391.53 13.4162C387.811 9.96555 373.488 24.9494 370.301 27.3818C358.878 36.1019 363.279 14.605 353.037 18.1568C349.491 19.3867 349.596 18.6247 347.985 15.274C344.91 8.87436 344.705 9.72993 338.97 10.2772C332.81 10.8649 329.16 -3.37518 321.833 0.860028C319.343 2.29898 308.956 12.2913 306.103 11.2381C301.685 9.60747 301.328 10.9427 297.151 14.4412C295.314 15.9803 290.55 20.7439 287.687 19.3099C284.404 17.6652 283.703 16.953 279.503 18.4131C275.78 19.7069 274.63 21.5316 269.783 20.5271C264.394 19.41 262.019 13.9651 257.123 12.199C251.054 10.0101 243.89 15.7784 239.219 11.8787C235.385 8.67811 233.721 4.28201 228.412 6.24126C226.361 6.9986 224.44 7.16414 222.466 6.24126C218.828 4.54066 215.907 1.76457 212.427 0.155344C209.744 -1.08513 205.702 5.47414 203.731 6.68969C201.099 8.31206 198.963 7.6895 196.761 5.72876C193.029 2.40518 182.309 16.7675 180.008 19.0537C175.304 23.7268 173.857 27.2756 168.626 24.1787C164.746 21.8818 158.833 32.8404 155.582 34.3005C152.355 35.7496 150.593 31.7786 147.909 31.2896C145.389 30.8307 142.691 35.5818 139.788 35.5818C137.493 35.5818 135.605 32.3786 133.969 32.3786C132.29 32.3786 130.744 35.2634 129.493 36.1583C128.275 37.03 128.095 33.9137 126.296 36.863C124.088 40.4834 119.954 36.8231 118.239 34.6849C114.601 30.1486 113.25 19.7904 107.497 26.2287C99.1069 35.6166 93.7592 47.4041 85.3725 56.5942C77.7804 64.9135 71.142 44.9019 63.8878 52.3661C57.0602 59.3912 51.7686 69.4488 47.9021 78.3753Z" fill="#0000AA"/>
</svg>
