<svg width="90" height="93" viewBox="0 0 90 93" fill="none" xmlns="http://www.w3.org/2000/svg">
<g clip-path="url(#clip0_297_339)">
<path d="M64.2748 12.9753C64.6882 14.6163 64.528 15.8598 63.541 16.922C62.0125 18.5662 59.8303 18.4263 58.4171 16.499C57.0296 14.6068 55.8151 12.6 54.8089 10.4788C53.0689 6.80881 53.2259 6.15368 56.6515 3.88299C58.4107 2.71583 60.2436 1.65999 62.0542 0.572347C63.5827 -0.346745 65.0824 -0.146389 66.2776 1.10345C67.3703 2.24516 67.5081 4.042 66.5981 5.38724C66.4026 5.67665 66.1783 5.94379 65.954 6.23319C75.8589 9.02863 83.0849 14.9216 87.584 24.068C88.6222 26.1797 89.324 28.4091 89.8239 30.6988C89.9681 31.3572 90.0386 32.0282 89.9681 32.7119C89.7662 34.6614 88.5549 35.9844 86.8662 36.0703C84.9082 36.1689 83.3477 35.0113 82.9792 33.1031C82.5306 30.7911 81.7551 28.5935 80.7553 26.4691C77.4579 19.4726 71.7764 15.3446 64.2748 12.9785V12.9753Z" fill="white"/>
<path d="M22.4247 86.7094C16.458 84.6995 11.504 81.4016 7.45995 76.787C3.71075 72.516 1.25935 67.5961 0.128182 62.037C-0.333258 59.7663 0.464649 58.0967 2.19184 57.7342C4.31319 57.2889 6.21022 58.5451 6.71331 60.7522C7.89255 65.9138 9.95301 70.6237 13.9105 74.3128C16.5542 76.7807 19.6176 78.6125 23.1265 79.9196C23.0271 78.6443 23.2418 77.5248 24.0622 76.5771C25.4721 74.9488 27.5422 74.8216 28.9586 76.4404C30.9774 78.7524 32.6533 81.3189 34.1466 83.9935C34.8035 85.1733 34.3548 86.7348 33.1436 87.7239C30.8556 89.5907 28.3882 91.2095 25.8182 92.6628C24.6262 93.337 23.0528 92.9554 22.0049 91.855C20.8609 90.6561 20.6879 89.2059 21.5499 87.8289C21.7774 87.4631 22.0786 87.1451 22.4215 86.7062L22.4247 86.7094Z" fill="white"/>
<path d="M82.1106 49.1635C78.0442 45.1087 73.9425 41.0889 69.86 37.0532C60.2147 27.5251 50.5661 18.0003 40.9303 8.46271C38.5719 6.12841 35.8256 4.68776 32.4257 4.6814C29.6379 4.68458 27.4492 5.57505 25.4336 7.56588C22.0594 10.902 18.6947 14.2476 15.3268 17.59C11.5328 21.3523 7.7419 25.1177 3.94784 28.8831C1.60539 31.2079 0.695329 33.9906 1.21124 37.2408C1.65346 40.0235 3.07623 42.2465 5.05337 44.2055C17.2046 56.2459 29.3431 68.3023 41.4847 80.3491C43.2664 82.1173 45.032 83.9078 46.8553 85.6346C50.7808 89.3555 57.4588 89.9184 61.8009 85.4247C68.6968 78.2851 75.8524 71.3935 82.9053 64.4065C84.1775 63.1471 85.1773 61.7287 85.5746 59.9764C86.5456 55.7085 85.1228 52.1625 82.1074 49.1604L82.1106 49.1635ZM77.9961 59.5598C70.7092 66.7121 63.4255 73.8709 56.1578 81.0424C55.3888 81.7992 54.5845 82.0346 53.559 81.653C52.5272 81.2713 51.6332 80.7084 50.8577 79.9388C37.1555 66.3941 23.4501 52.8558 9.74147 39.3175C8.92754 38.5129 8.30588 37.6097 8.07196 36.4871C7.85406 35.4567 8.04312 34.5471 8.83782 33.7616C16.0382 26.6347 23.2258 19.4918 30.423 12.3617C31.5285 11.2677 32.352 11.1405 33.7876 11.7415C34.6112 12.0882 35.3033 12.6098 35.9346 13.2331C49.6945 26.8318 63.4608 40.4242 77.2239 54.0198C78.1884 54.9707 78.9062 56.0361 78.919 57.6039C78.9767 58.3036 78.6082 58.9619 78.0057 59.5534L77.9961 59.5598Z" fill="white"/>
</g>
<defs>
<clipPath id="clip0_297_339">
<rect width="90" height="93" fill="white"/>
</clipPath>
</defs>
</svg>
